<?xml version="1.0" encoding="utf-8"?>
<!-- Generator: Adobe Illustrator 21.1.0, SVG Export Plug-In . SVG Version: 6.00 Build 0)  -->
<svg version="1.1" id="Layer_1" xmlns="http://www.w3.org/2000/svg" xmlns:xlink="http://www.w3.org/1999/xlink" x="0px" y="0px"
	 viewBox="0 0 209 84" enable-background="new 0 0 209 84" xml:space="preserve">
	<g>
		<rect x="4.5" y="4.5" fill="none" stroke="#FFFFFF" stroke-width="9" stroke-miterlimit="10" width="200" height="75"/>
		<linearGradient id="SVGID_1_" gradientUnits="userSpaceOnUse" x1="177.7261" y1="58" x2="177.7261" y2="24.7476">
			<stop  offset="0" style="stop-color:#00518F"/>
			<stop  offset="1" style="stop-color:#FF35F5"/>
		</linearGradient>
		<circle fill="url(#SVGID_1_)" cx="177.7" cy="42" r="7.5"/>
		<g>
			<path fill="#FFFFFF" d="M35.8,54.5c-4,0-6.9-1.1-9-3.2c-2-2.1-3.1-5.2-3.1-9.2c0-4,1.1-7.1,3.3-9.3s5.3-3.3,9.4-3.3
				c2.8,0,5.4,0.6,7.9,1.8l-2.5,6.2c-1-0.4-1.9-0.8-2.8-1.1S37.4,36,36.5,36c-1.4,0-2.4,0.5-3.1,1.6c-0.7,1.1-1.1,2.5-1.1,4.5
				c0,3.9,1.4,5.8,4.3,5.8c2.4,0,4.8-0.7,7-2.1v6.6C41.4,53.8,38.8,54.5,35.8,54.5z"/>
			<path fill="#FFFFFF" d="M56.7,54.1h-8.3V20.9h8.3V54.1z"/>
			<path fill="#FFFFFF" d="M74.1,54.5c-4,0-7.1-1.1-9.4-3.2c-2.2-2.1-3.3-5.2-3.3-9.1c0-4.1,1-7.2,3.1-9.4c2.1-2.2,5-3.3,8.8-3.3
				c3.6,0,6.4,0.9,8.4,2.8c2,1.9,3,4.6,3,8.2v3.7H69.8c0.1,1.4,0.6,2.4,1.5,3.2c0.9,0.8,2.2,1.2,3.8,1.2c1.5,0,2.8-0.1,4-0.4
				c1.2-0.3,2.6-0.8,4-1.4v6c-1.3,0.7-2.7,1.1-4,1.4C77.7,54.4,76.1,54.5,74.1,54.5z M73.6,35.2c-1,0-1.8,0.3-2.5,0.9
				c-0.7,0.6-1,1.6-1.2,2.9h7.2c0-1.2-0.4-2.1-1-2.8C75.5,35.5,74.7,35.2,73.6,35.2z"/>
			<path fill="#FFFFFF" d="M95.8,54.1l-9.2-24.2h8.7l4.1,14.3c0,0.1,0,0.2,0.1,0.4c0,0.2,0.1,0.4,0.1,0.6c0,0.2,0.1,0.5,0.1,0.7
				c0,0.3,0.1,0.5,0.1,0.7h0.1c0-0.7,0.1-1.5,0.4-2.4l4.3-14.3h8.7L104,54.1H95.8z"/>
			<path fill="#FFFFFF" d="M127.8,54.5c-4,0-7.1-1.1-9.4-3.2c-2.2-2.1-3.3-5.2-3.3-9.1c0-4.1,1-7.2,3.1-9.4s5-3.3,8.8-3.3
				c3.6,0,6.4,0.9,8.4,2.8c2,1.9,3,4.6,3,8.2v3.7h-14.9c0.1,1.4,0.6,2.4,1.5,3.2c0.9,0.8,2.2,1.2,3.8,1.2c1.5,0,2.8-0.1,4-0.4
				c1.2-0.3,2.6-0.8,4-1.4v6c-1.3,0.7-2.7,1.1-4.1,1.4S129.7,54.5,127.8,54.5z M127.3,35.2c-1,0-1.8,0.3-2.5,0.9
				c-0.7,0.6-1,1.6-1.2,2.9h7.2c0-1.2-0.4-2.1-1-2.8C129.2,35.5,128.4,35.2,127.3,35.2z"/>
			<path fill="#FFFFFF" d="M157.7,29.5c0.7,0,1.4,0.1,2.1,0.2l0.5,0.1l-0.7,7.9c-0.7-0.2-1.6-0.3-2.8-0.3c-1.8,0-3.1,0.4-4,1.2
				c-0.8,0.8-1.2,2-1.2,3.6v11.9h-8.3V29.9h6.2l1.3,3.9h0.4c0.7-1.3,1.7-2.3,2.9-3.1S156.4,29.5,157.7,29.5z"/>
		</g>
	</g>
</svg>
